<mxfile host="app.diagrams.net" modified="2024-06-26T20:26:56.645Z" agent="Mozilla/5.0 (Macintosh; Intel Mac OS X 10_15_7) AppleWebKit/605.1.15 (KHTML, like Gecko) Version/17.5 Safari/605.1.15" etag="DG8P4LDZY4Z2LmKb5j9v" version="24.6.3" type="device">
  <diagram name="Page-1" id="bh-6YQsBaPwd7DZUDQtX">
    <mxGraphModel dx="1080" dy="692" grid="1" gridSize="10" guides="1" tooltips="1" connect="1" arrows="1" fold="1" page="1" pageScale="1" pageWidth="1169" pageHeight="827" math="0" shadow="0">
      <root>
        <mxCell id="0" />
        <mxCell id="1" parent="0" />
        <mxCell id="t3jQK-MtOMshMz4b5-8G-23" value="" style="fillColor=none;strokeColor=#5A6C86;dashed=1;verticalAlign=top;fontStyle=0;fontColor=#5A6C86;whiteSpace=wrap;html=1;" vertex="1" parent="1">
          <mxGeometry width="1160" height="800" as="geometry" />
        </mxCell>
        <mxCell id="t3jQK-MtOMshMz4b5-8G-1" value="&lt;h1 style=&quot;margin-top: 0px;&quot;&gt;&lt;font style=&quot;font-size: 33px;&quot;&gt;Architecture diagram&lt;/font&gt;&lt;/h1&gt;" style="text;html=1;whiteSpace=wrap;overflow=hidden;rounded=0;fontSize=15;" vertex="1" parent="1">
          <mxGeometry x="40" y="40" width="520" height="80" as="geometry" />
        </mxCell>
        <mxCell id="t3jQK-MtOMshMz4b5-8G-2" value="&lt;font style=&quot;font-size: 15px;&quot;&gt;Lambda&lt;/font&gt;" style="sketch=0;points=[[0,0,0],[0.25,0,0],[0.5,0,0],[0.75,0,0],[1,0,0],[0,1,0],[0.25,1,0],[0.5,1,0],[0.75,1,0],[1,1,0],[0,0.25,0],[0,0.5,0],[0,0.75,0],[1,0.25,0],[1,0.5,0],[1,0.75,0]];outlineConnect=0;fontColor=#232F3E;fillColor=#ED7100;strokeColor=#ffffff;dashed=0;verticalLabelPosition=top;verticalAlign=bottom;align=center;html=1;fontSize=12;fontStyle=0;aspect=fixed;shape=mxgraph.aws4.resourceIcon;resIcon=mxgraph.aws4.lambda;labelPosition=center;" vertex="1" parent="1">
          <mxGeometry x="400" y="240" width="80" height="80" as="geometry" />
        </mxCell>
        <mxCell id="t3jQK-MtOMshMz4b5-8G-3" value="&lt;font style=&quot;font-size: 15px;&quot;&gt;EventBridge&lt;/font&gt;" style="sketch=0;points=[[0,0,0],[0.25,0,0],[0.5,0,0],[0.75,0,0],[1,0,0],[0,1,0],[0.25,1,0],[0.5,1,0],[0.75,1,0],[1,1,0],[0,0.25,0],[0,0.5,0],[0,0.75,0],[1,0.25,0],[1,0.5,0],[1,0.75,0]];outlineConnect=0;fontColor=#232F3E;fillColor=#E7157B;strokeColor=#ffffff;dashed=0;verticalLabelPosition=bottom;verticalAlign=top;align=center;html=1;fontSize=12;fontStyle=0;aspect=fixed;shape=mxgraph.aws4.resourceIcon;resIcon=mxgraph.aws4.eventbridge;" vertex="1" parent="1">
          <mxGeometry x="160" y="240" width="80" height="80" as="geometry" />
        </mxCell>
        <mxCell id="t3jQK-MtOMshMz4b5-8G-5" value="" style="endArrow=classic;html=1;rounded=0;exitX=1;exitY=0.5;exitDx=0;exitDy=0;exitPerimeter=0;strokeColor=#2E2E2E;strokeWidth=4;endSize=1;" edge="1" parent="1" source="t3jQK-MtOMshMz4b5-8G-3" target="t3jQK-MtOMshMz4b5-8G-2">
          <mxGeometry width="50" height="50" relative="1" as="geometry">
            <mxPoint x="570" y="400" as="sourcePoint" />
            <mxPoint x="620" y="350" as="targetPoint" />
          </mxGeometry>
        </mxCell>
        <mxCell id="t3jQK-MtOMshMz4b5-8G-6" value="&lt;font style=&quot;font-size: 15px;&quot;&gt;SQS&lt;/font&gt;" style="sketch=0;points=[[0,0,0],[0.25,0,0],[0.5,0,0],[0.75,0,0],[1,0,0],[0,1,0],[0.25,1,0],[0.5,1,0],[0.75,1,0],[1,1,0],[0,0.25,0],[0,0.5,0],[0,0.75,0],[1,0.25,0],[1,0.5,0],[1,0.75,0]];outlineConnect=0;fontColor=#232F3E;fillColor=#E7157B;strokeColor=#ffffff;dashed=0;verticalLabelPosition=bottom;verticalAlign=top;align=center;html=1;fontSize=12;fontStyle=0;aspect=fixed;shape=mxgraph.aws4.resourceIcon;resIcon=mxgraph.aws4.sqs;" vertex="1" parent="1">
          <mxGeometry x="640" y="240" width="80" height="80" as="geometry" />
        </mxCell>
        <mxCell id="t3jQK-MtOMshMz4b5-8G-7" value="" style="endArrow=classic;html=1;rounded=0;exitX=1;exitY=0.5;exitDx=0;exitDy=0;exitPerimeter=0;entryX=0;entryY=0.5;entryDx=0;entryDy=0;entryPerimeter=0;strokeWidth=4;endSize=1;" edge="1" parent="1" source="t3jQK-MtOMshMz4b5-8G-2" target="t3jQK-MtOMshMz4b5-8G-6">
          <mxGeometry width="50" height="50" relative="1" as="geometry">
            <mxPoint x="510" y="351" as="sourcePoint" />
            <mxPoint x="670" y="350" as="targetPoint" />
          </mxGeometry>
        </mxCell>
        <mxCell id="t3jQK-MtOMshMz4b5-8G-8" value="Lambda" style="sketch=0;points=[[0,0,0],[0.25,0,0],[0.5,0,0],[0.75,0,0],[1,0,0],[0,1,0],[0.25,1,0],[0.5,1,0],[0.75,1,0],[1,1,0],[0,0.25,0],[0,0.5,0],[0,0.75,0],[1,0.25,0],[1,0.5,0],[1,0.75,0]];outlineConnect=0;fontColor=#232F3E;fillColor=#ED7100;strokeColor=#ffffff;dashed=0;verticalLabelPosition=top;verticalAlign=bottom;align=center;html=1;fontSize=15;fontStyle=0;aspect=fixed;shape=mxgraph.aws4.resourceIcon;resIcon=mxgraph.aws4.lambda;labelPosition=center;" vertex="1" parent="1">
          <mxGeometry x="880" y="240" width="80" height="80" as="geometry" />
        </mxCell>
        <mxCell id="t3jQK-MtOMshMz4b5-8G-9" value="" style="endArrow=classic;html=1;rounded=0;exitX=0;exitY=0.5;exitDx=0;exitDy=0;exitPerimeter=0;entryX=1;entryY=0.5;entryDx=0;entryDy=0;entryPerimeter=0;strokeWidth=4;endSize=1;" edge="1" parent="1" source="t3jQK-MtOMshMz4b5-8G-8" target="t3jQK-MtOMshMz4b5-8G-6">
          <mxGeometry width="50" height="50" relative="1" as="geometry">
            <mxPoint x="700" y="380" as="sourcePoint" />
            <mxPoint x="862" y="380" as="targetPoint" />
          </mxGeometry>
        </mxCell>
        <mxCell id="t3jQK-MtOMshMz4b5-8G-10" value="DynamoDB" style="sketch=0;points=[[0,0,0],[0.25,0,0],[0.5,0,0],[0.75,0,0],[1,0,0],[0,1,0],[0.25,1,0],[0.5,1,0],[0.75,1,0],[1,1,0],[0,0.25,0],[0,0.5,0],[0,0.75,0],[1,0.25,0],[1,0.5,0],[1,0.75,0]];outlineConnect=0;fontColor=#232F3E;fillColor=#C925D1;strokeColor=#ffffff;dashed=0;verticalLabelPosition=bottom;verticalAlign=top;align=center;html=1;fontSize=15;fontStyle=0;aspect=fixed;shape=mxgraph.aws4.resourceIcon;resIcon=mxgraph.aws4.dynamodb;" vertex="1" parent="1">
          <mxGeometry x="880" y="558" width="82" height="82" as="geometry" />
        </mxCell>
        <mxCell id="t3jQK-MtOMshMz4b5-8G-11" value="&lt;font style=&quot;font-size: 15px;&quot;&gt;Lambda&lt;/font&gt;" style="sketch=0;points=[[0,0,0],[0.25,0,0],[0.5,0,0],[0.75,0,0],[1,0,0],[0,1,0],[0.25,1,0],[0.5,1,0],[0.75,1,0],[1,1,0],[0,0.25,0],[0,0.5,0],[0,0.75,0],[1,0.25,0],[1,0.5,0],[1,0.75,0]];outlineConnect=0;fontColor=#232F3E;fillColor=#ED7100;strokeColor=#ffffff;dashed=0;verticalLabelPosition=bottom;verticalAlign=top;align=center;html=1;fontSize=12;fontStyle=0;aspect=fixed;shape=mxgraph.aws4.resourceIcon;resIcon=mxgraph.aws4.lambda;" vertex="1" parent="1">
          <mxGeometry x="639" y="558" width="82" height="82" as="geometry" />
        </mxCell>
        <mxCell id="t3jQK-MtOMshMz4b5-8G-12" value="" style="endArrow=classic;html=1;rounded=0;exitX=0.5;exitY=1;exitDx=0;exitDy=0;exitPerimeter=0;entryX=0.5;entryY=0;entryDx=0;entryDy=0;entryPerimeter=0;strokeWidth=4;endSize=1;" edge="1" parent="1" source="t3jQK-MtOMshMz4b5-8G-8" target="t3jQK-MtOMshMz4b5-8G-10">
          <mxGeometry width="50" height="50" relative="1" as="geometry">
            <mxPoint x="850" y="412" as="sourcePoint" />
            <mxPoint x="688" y="410" as="targetPoint" />
          </mxGeometry>
        </mxCell>
        <mxCell id="t3jQK-MtOMshMz4b5-8G-13" value="" style="endArrow=classic;html=1;rounded=0;exitX=0;exitY=0.5;exitDx=0;exitDy=0;exitPerimeter=0;entryX=1;entryY=0.5;entryDx=0;entryDy=0;entryPerimeter=0;strokeWidth=4;endSize=1;" edge="1" parent="1" source="t3jQK-MtOMshMz4b5-8G-10" target="t3jQK-MtOMshMz4b5-8G-11">
          <mxGeometry width="50" height="50" relative="1" as="geometry">
            <mxPoint x="640" y="420" as="sourcePoint" />
            <mxPoint x="680" y="519" as="targetPoint" />
          </mxGeometry>
        </mxCell>
        <mxCell id="t3jQK-MtOMshMz4b5-8G-14" value="&lt;font style=&quot;font-size: 15px;&quot;&gt;Bedrock&lt;/font&gt;" style="sketch=0;points=[[0,0,0],[0.25,0,0],[0.5,0,0],[0.75,0,0],[1,0,0],[0,1,0],[0.25,1,0],[0.5,1,0],[0.75,1,0],[1,1,0],[0,0.25,0],[0,0.5,0],[0,0.75,0],[1,0.25,0],[1,0.5,0],[1,0.75,0]];outlineConnect=0;fontColor=#232F3E;fillColor=#01A88D;strokeColor=#ffffff;dashed=0;verticalLabelPosition=bottom;verticalAlign=top;align=center;html=1;fontSize=12;fontStyle=0;aspect=fixed;shape=mxgraph.aws4.resourceIcon;resIcon=mxgraph.aws4.bedrock;" vertex="1" parent="1">
          <mxGeometry x="400" y="558" width="82" height="82" as="geometry" />
        </mxCell>
        <mxCell id="t3jQK-MtOMshMz4b5-8G-16" value="&lt;font style=&quot;font-size: 15px;&quot;&gt;X-Ray&lt;/font&gt;" style="sketch=0;points=[[0,0,0],[0.25,0,0],[0.5,0,0],[0.75,0,0],[1,0,0],[0,1,0],[0.25,1,0],[0.5,1,0],[0.75,1,0],[1,1,0],[0,0.25,0],[0,0.5,0],[0,0.75,0],[1,0.25,0],[1,0.5,0],[1,0.75,0]];outlineConnect=0;fontColor=#232F3E;fillColor=#C925D1;strokeColor=#ffffff;dashed=0;verticalLabelPosition=top;verticalAlign=bottom;align=center;html=1;fontSize=12;fontStyle=0;aspect=fixed;shape=mxgraph.aws4.resourceIcon;resIcon=mxgraph.aws4.xray;labelPosition=center;" vertex="1" parent="1">
          <mxGeometry x="640" y="400" width="80" height="80" as="geometry" />
        </mxCell>
        <mxCell id="t3jQK-MtOMshMz4b5-8G-17" value="" style="endArrow=classic;html=1;rounded=0;exitX=0.5;exitY=0;exitDx=0;exitDy=0;exitPerimeter=0;entryX=0.5;entryY=1;entryDx=0;entryDy=0;entryPerimeter=0;strokeWidth=4;endSize=1;" edge="1" parent="1" source="t3jQK-MtOMshMz4b5-8G-11" target="t3jQK-MtOMshMz4b5-8G-16">
          <mxGeometry width="50" height="50" relative="1" as="geometry">
            <mxPoint x="850" y="607" as="sourcePoint" />
            <mxPoint x="688" y="607" as="targetPoint" />
          </mxGeometry>
        </mxCell>
        <mxCell id="t3jQK-MtOMshMz4b5-8G-18" value="" style="endArrow=classic;html=1;rounded=0;exitX=0;exitY=0.5;exitDx=0;exitDy=0;exitPerimeter=0;entryX=1;entryY=0.5;entryDx=0;entryDy=0;entryPerimeter=0;strokeWidth=4;endSize=1;" edge="1" parent="1" source="t3jQK-MtOMshMz4b5-8G-27" target="t3jQK-MtOMshMz4b5-8G-16">
          <mxGeometry width="50" height="50" relative="1" as="geometry">
            <mxPoint x="649" y="568" as="sourcePoint" />
            <mxPoint x="649" y="488" as="targetPoint" />
            <Array as="points">
              <mxPoint x="760" y="280" />
              <mxPoint x="760" y="439" />
            </Array>
          </mxGeometry>
        </mxCell>
        <mxCell id="t3jQK-MtOMshMz4b5-8G-19" value="" style="endArrow=classic;html=1;rounded=0;exitX=0.5;exitY=1;exitDx=0;exitDy=0;exitPerimeter=0;entryX=0;entryY=0.5;entryDx=0;entryDy=0;entryPerimeter=0;strokeWidth=4;endSize=1;" edge="1" parent="1" source="t3jQK-MtOMshMz4b5-8G-2" target="t3jQK-MtOMshMz4b5-8G-16">
          <mxGeometry width="50" height="50" relative="1" as="geometry">
            <mxPoint x="480" y="530" as="sourcePoint" />
            <mxPoint x="480" y="450" as="targetPoint" />
            <Array as="points">
              <mxPoint x="439" y="439" />
            </Array>
          </mxGeometry>
        </mxCell>
        <mxCell id="t3jQK-MtOMshMz4b5-8G-21" value="&lt;font color=&quot;#adadad&quot; style=&quot;font-size: 15px;&quot;&gt;eu-west-3 (Paris)&lt;/font&gt;" style="points=[[0,0],[0.25,0],[0.5,0],[0.75,0],[1,0],[1,0.25],[1,0.5],[1,0.75],[1,1],[0.75,1],[0.5,1],[0.25,1],[0,1],[0,0.75],[0,0.5],[0,0.25]];outlineConnect=0;gradientColor=none;html=1;whiteSpace=wrap;fontSize=12;fontStyle=0;container=1;pointerEvents=0;collapsible=0;recursiveResize=0;shape=mxgraph.aws4.group;grIcon=mxgraph.aws4.group_region;strokeColor=#ADADAD;fillColor=none;verticalAlign=top;align=left;spacingLeft=30;fontColor=#147EBA;dashed=1;strokeWidth=4;" vertex="1" parent="1">
          <mxGeometry x="80" y="159" width="1000" height="560" as="geometry" />
        </mxCell>
        <mxCell id="t3jQK-MtOMshMz4b5-8G-22" value="&lt;font style=&quot;font-size: 15px;&quot;&gt;Cloudwatch&lt;/font&gt;" style="sketch=0;points=[[0,0,0],[0.25,0,0],[0.5,0,0],[0.75,0,0],[1,0,0],[0,1,0],[0.25,1,0],[0.5,1,0],[0.75,1,0],[1,1,0],[0,0.25,0],[0,0.5,0],[0,0.75,0],[1,0.25,0],[1,0.5,0],[1,0.75,0]];points=[[0,0,0],[0.25,0,0],[0.5,0,0],[0.75,0,0],[1,0,0],[0,1,0],[0.25,1,0],[0.5,1,0],[0.75,1,0],[1,1,0],[0,0.25,0],[0,0.5,0],[0,0.75,0],[1,0.25,0],[1,0.5,0],[1,0.75,0]];outlineConnect=0;fontColor=#232F3E;fillColor=#E7157B;strokeColor=#ffffff;dashed=0;verticalLabelPosition=bottom;verticalAlign=top;align=center;html=1;fontSize=12;fontStyle=0;aspect=fixed;shape=mxgraph.aws4.resourceIcon;resIcon=mxgraph.aws4.cloudwatch_2;" vertex="1" parent="t3jQK-MtOMshMz4b5-8G-21">
          <mxGeometry x="120" y="280" width="80" height="80" as="geometry" />
        </mxCell>
        <mxCell id="t3jQK-MtOMshMz4b5-8G-26" value="&lt;font color=&quot;#eeeeee&quot; style=&quot;font-size: 14px;&quot;&gt;&lt;b&gt;2&lt;/b&gt;&lt;/font&gt;" style="ellipse;whiteSpace=wrap;html=1;aspect=fixed;fillStyle=solid;fillColor=#2E2E2E;strokeColor=#2E2E2E;strokeWidth=4;" vertex="1" parent="t3jQK-MtOMshMz4b5-8G-21">
          <mxGeometry x="460" y="101" width="40" height="40" as="geometry" />
        </mxCell>
        <mxCell id="t3jQK-MtOMshMz4b5-8G-36" value="&lt;font color=&quot;#eeeeee&quot; style=&quot;font-size: 14px;&quot;&gt;&lt;b&gt;A&lt;/b&gt;&lt;/font&gt;" style="ellipse;whiteSpace=wrap;html=1;aspect=fixed;fillStyle=solid;fillColor=#2E2E2E;strokeColor=#2E2E2E;strokeWidth=4;" vertex="1" parent="t3jQK-MtOMshMz4b5-8G-21">
          <mxGeometry x="340" y="181" width="40" height="40" as="geometry" />
        </mxCell>
        <mxCell id="t3jQK-MtOMshMz4b5-8G-38" value="&lt;font color=&quot;#eeeeee&quot; style=&quot;font-size: 14px;&quot;&gt;&lt;b&gt;4&lt;/b&gt;&lt;/font&gt;" style="ellipse;whiteSpace=wrap;html=1;aspect=fixed;fillStyle=solid;fillColor=#2E2E2E;strokeColor=#2E2E2E;strokeWidth=4;" vertex="1" parent="t3jQK-MtOMshMz4b5-8G-21">
          <mxGeometry x="820" y="260" width="40" height="40" as="geometry" />
        </mxCell>
        <mxCell id="t3jQK-MtOMshMz4b5-8G-42" value="&lt;font color=&quot;#eeeeee&quot; style=&quot;font-size: 14px;&quot;&gt;&lt;b&gt;B&lt;/b&gt;&lt;/font&gt;" style="ellipse;whiteSpace=wrap;html=1;aspect=fixed;fillStyle=solid;fillColor=#2E2E2E;strokeColor=#2E2E2E;strokeWidth=4;" vertex="1" parent="t3jQK-MtOMshMz4b5-8G-21">
          <mxGeometry x="140" y="231" width="40" height="40" as="geometry" />
        </mxCell>
        <mxCell id="t3jQK-MtOMshMz4b5-8G-43" value="" style="endArrow=classic;html=1;rounded=0;entryX=0.5;entryY=0;entryDx=0;entryDy=0;entryPerimeter=0;strokeWidth=4;endSize=1;" edge="1" parent="t3jQK-MtOMshMz4b5-8G-21" target="t3jQK-MtOMshMz4b5-8G-10">
          <mxGeometry width="50" height="50" relative="1" as="geometry">
            <mxPoint x="600" y="401" as="sourcePoint" />
            <mxPoint x="640" y="341" as="targetPoint" />
            <Array as="points">
              <mxPoint x="600" y="361" />
              <mxPoint x="841" y="361" />
            </Array>
          </mxGeometry>
        </mxCell>
        <mxCell id="t3jQK-MtOMshMz4b5-8G-46" value="&lt;font color=&quot;#eeeeee&quot; style=&quot;font-size: 14px;&quot;&gt;&lt;b&gt;A&lt;/b&gt;&lt;/font&gt;" style="ellipse;whiteSpace=wrap;html=1;aspect=fixed;fillStyle=solid;fillColor=#2E2E2E;strokeColor=#2E2E2E;strokeWidth=4;" vertex="1" parent="t3jQK-MtOMshMz4b5-8G-21">
          <mxGeometry x="550" y="341" width="40" height="40" as="geometry" />
        </mxCell>
        <mxCell id="t3jQK-MtOMshMz4b5-8G-24" value="&lt;font color=&quot;#eeeeee&quot; style=&quot;font-size: 14px;&quot;&gt;&lt;b&gt;1&lt;/b&gt;&lt;/font&gt;" style="ellipse;whiteSpace=wrap;html=1;aspect=fixed;fillStyle=solid;fillColor=#2E2E2E;strokeColor=#2E2E2E;strokeWidth=4;" vertex="1" parent="1">
          <mxGeometry x="300" y="259" width="40" height="40" as="geometry" />
        </mxCell>
        <mxCell id="t3jQK-MtOMshMz4b5-8G-34" value="" style="endArrow=classic;html=1;rounded=0;exitX=0;exitY=0.5;exitDx=0;exitDy=0;exitPerimeter=0;entryX=1;entryY=0.5;entryDx=0;entryDy=0;entryPerimeter=0;strokeWidth=4;endSize=1;" edge="1" parent="1" source="t3jQK-MtOMshMz4b5-8G-8" target="t3jQK-MtOMshMz4b5-8G-27">
          <mxGeometry width="50" height="50" relative="1" as="geometry">
            <mxPoint x="880" y="280" as="sourcePoint" />
            <mxPoint x="720" y="440" as="targetPoint" />
            <Array as="points" />
          </mxGeometry>
        </mxCell>
        <mxCell id="t3jQK-MtOMshMz4b5-8G-27" value="&lt;font color=&quot;#eeeeee&quot; style=&quot;font-size: 14px;&quot;&gt;&lt;b&gt;3&lt;/b&gt;&lt;/font&gt;" style="ellipse;whiteSpace=wrap;html=1;aspect=fixed;fillStyle=solid;fillColor=#2E2E2E;strokeColor=#2E2E2E;strokeWidth=4;" vertex="1" parent="1">
          <mxGeometry x="820" y="259" width="40" height="40" as="geometry" />
        </mxCell>
        <mxCell id="t3jQK-MtOMshMz4b5-8G-35" value="&lt;font color=&quot;#eeeeee&quot; style=&quot;font-size: 14px;&quot;&gt;&lt;b&gt;A&lt;/b&gt;&lt;/font&gt;" style="ellipse;whiteSpace=wrap;html=1;aspect=fixed;fillStyle=solid;fillColor=#2E2E2E;strokeColor=#2E2E2E;strokeWidth=4;" vertex="1" parent="1">
          <mxGeometry x="740" y="340" width="40" height="40" as="geometry" />
        </mxCell>
        <mxCell id="t3jQK-MtOMshMz4b5-8G-39" value="&lt;font color=&quot;#eeeeee&quot; style=&quot;font-size: 14px;&quot;&gt;&lt;b&gt;5&lt;/b&gt;&lt;/font&gt;" style="ellipse;whiteSpace=wrap;html=1;aspect=fixed;fillStyle=solid;fillColor=#2E2E2E;strokeColor=#2E2E2E;strokeWidth=4;" vertex="1" parent="1">
          <mxGeometry x="780" y="579" width="40" height="40" as="geometry" />
        </mxCell>
        <mxCell id="t3jQK-MtOMshMz4b5-8G-41" value="" style="endArrow=classic;html=1;rounded=0;exitX=0;exitY=0.5;exitDx=0;exitDy=0;exitPerimeter=0;entryX=1;entryY=0.5;entryDx=0;entryDy=0;entryPerimeter=0;strokeWidth=4;endSize=1;" edge="1" parent="1" source="t3jQK-MtOMshMz4b5-8G-11" target="t3jQK-MtOMshMz4b5-8G-14">
          <mxGeometry width="50" height="50" relative="1" as="geometry">
            <mxPoint x="639" y="599" as="sourcePoint" />
            <mxPoint x="482" y="599" as="targetPoint" />
          </mxGeometry>
        </mxCell>
        <mxCell id="t3jQK-MtOMshMz4b5-8G-40" value="&lt;font color=&quot;#eeeeee&quot; style=&quot;font-size: 14px;&quot;&gt;&lt;b&gt;6&lt;/b&gt;&lt;/font&gt;" style="ellipse;whiteSpace=wrap;html=1;aspect=fixed;fillStyle=solid;fillColor=#2E2E2E;strokeColor=#2E2E2E;strokeWidth=4;" vertex="1" parent="1">
          <mxGeometry x="540" y="579" width="40" height="40" as="geometry" />
        </mxCell>
        <mxCell id="t3jQK-MtOMshMz4b5-8G-44" value="&lt;font color=&quot;#eeeeee&quot; style=&quot;font-size: 14px;&quot;&gt;&lt;b&gt;7&lt;/b&gt;&lt;/font&gt;" style="ellipse;whiteSpace=wrap;html=1;aspect=fixed;fillStyle=solid;fillColor=#2E2E2E;strokeColor=#2E2E2E;strokeWidth=4;" vertex="1" parent="1">
          <mxGeometry x="780" y="500" width="40" height="40" as="geometry" />
        </mxCell>
      </root>
    </mxGraphModel>
  </diagram>
</mxfile>
